<svg width="320" height="420" viewBox="0 0 320 420" fill="none" xmlns="http://www.w3.org/2000/svg">
  <defs>
    <linearGradient id="side-bg" x1="160" y1="0" x2="160" y2="420" gradientUnits="userSpaceOnUse">
      <stop stop-color="#FAFCFF"/>
      <stop offset="1" stop-color="#E6F1FF"/>
    </linearGradient>
    <linearGradient id="side-shield" x1="160" y1="86" x2="160" y2="294" gradientUnits="userSpaceOnUse">
      <stop stop-color="#F7FBFF"/>
      <stop offset="0.55" stop-color="#A9CFFF"/>
      <stop offset="1" stop-color="#4F8FF4"/>
    </linearGradient>
    <linearGradient id="side-platform" x1="160" y1="280" x2="160" y2="368" gradientUnits="userSpaceOnUse">
      <stop stop-color="#FDFEFF"/>
      <stop offset="1" stop-color="#B6D6FF"/>
    </linearGradient>
    <filter id="side-shadow" x="52" y="60" width="216" height="248" filterUnits="userSpaceOnUse" color-interpolation-filters="sRGB">
      <feDropShadow dx="0" dy="24" stdDeviation="20" flood-color="#6AA4F9" flood-opacity="0.18"/>
    </filter>
  </defs>

  <rect width="320" height="420" rx="32" fill="url(#side-bg)"/>

  <g opacity="0.24">
    <path d="M34 68H286" stroke="#D4E7FF" stroke-width="1.5"/>
    <path d="M34 104H286" stroke="#D4E7FF" stroke-width="1.5"/>
    <path d="M34 140H286" stroke="#D4E7FF" stroke-width="1.5"/>
    <path d="M34 176H286" stroke="#D4E7FF" stroke-width="1.5"/>
    <path d="M34 212H286" stroke="#D4E7FF" stroke-width="1.5"/>
    <path d="M70 30V390" stroke="#D4E7FF" stroke-width="1.5"/>
    <path d="M122 30V390" stroke="#D4E7FF" stroke-width="1.5"/>
    <path d="M174 30V390" stroke="#D4E7FF" stroke-width="1.5"/>
    <path d="M226 30V390" stroke="#D4E7FF" stroke-width="1.5"/>
  </g>

  <g opacity="0.6">
    <circle cx="246" cy="94" r="6" fill="#8BBEFF"/>
    <circle cx="84" cy="250" r="5" fill="#B8D8FF"/>
    <circle cx="222" cy="322" r="7" fill="#6AA4F9"/>
  </g>

  <ellipse cx="160" cy="352" rx="92" ry="26" fill="#C9E2FF" fill-opacity="0.42"/>
  <ellipse cx="160" cy="340" rx="68" ry="18" fill="#E2F0FF" fill-opacity="0.9"/>

  <g filter="url(#side-shadow)">
    <path d="M160 84L220 104L212 196C209 236 189 272 160 294C131 272 111 236 108 196L100 104L160 84Z" fill="url(#side-shield)"/>
    <path d="M160 100L206 116L200 194C197 224 182 250 160 268C138 250 123 224 120 194L114 116L160 100Z" fill="#F9FCFF" fill-opacity="0.74"/>
    <path d="M160 126V234" stroke="#5B97F4" stroke-width="12" stroke-linecap="round"/>
    <path d="M128 182L150 204L194 156" stroke="#5B97F4" stroke-width="12" stroke-linecap="round" stroke-linejoin="round"/>
  </g>

  <g opacity="0.84">
    <ellipse cx="160" cy="344" rx="116" ry="30" fill="#E8F3FF"/>
    <ellipse cx="160" cy="344" rx="90" ry="22" fill="#D5E8FF"/>
    <ellipse cx="160" cy="344" rx="64" ry="15" fill="#F7FBFF"/>
  </g>

  <g opacity="0.78">
    <rect x="52" y="286" width="28" height="46" rx="14" fill="#E9F3FF"/>
    <rect x="58" y="292" width="16" height="34" rx="8" fill="#A9CFFF"/>
    <rect x="242" y="274" width="28" height="58" rx="14" fill="#E9F3FF"/>
    <rect x="248" y="280" width="16" height="46" rx="8" fill="#91C1FF"/>
    <rect x="232" y="126" width="22" height="42" rx="11" fill="#F1F7FF"/>
    <rect x="236" y="132" width="14" height="30" rx="7" fill="#B5D6FF"/>
  </g>
</svg>
